<svg xmlns="http://www.w3.org/2000/svg" xmlns:xlink="http://www.w3.org/1999/xlink" width="70" zoomAndPan="magnify" viewBox="0 0 52.5 52.499999" height="70" preserveAspectRatio="xMidYMid meet" version="1.0"><defs><g/><clipPath id="af36ffe8c1"><path d="M 0 5.25 L 52.003906 5.25 L 52.003906 20.25 L 0 20.25 Z M 0 5.25 " clip-rule="nonzero"/></clipPath></defs><g clip-path="url(#af36ffe8c1)"><path fill="#4db6ac" d="M 45.828125 19.398438 C 47.851562 19.347656 49.925781 19.050781 51.992188 18.511719 C 52.164062 18.464844 52.308594 18.335938 52.378906 18.167969 C 52.449219 18 52.433594 17.804688 52.34375 17.648438 L 46.6875 7.878906 C 46.574219 7.683594 46.355469 7.574219 46.136719 7.59375 L 44.566406 7.738281 L 44.566406 7.757812 L 44.496094 7.632812 C 44.433594 7.523438 44.304688 7.480469 44.191406 7.539062 C 44.066406 7.601562 43.933594 7.660156 43.796875 7.710938 L 43.015625 6.324219 C 42.953125 6.21875 42.824219 6.175781 42.714844 6.230469 C 41.25 6.949219 39.453125 7.046875 37.066406 6.539062 C 36.445312 6.402344 35.816406 6.242188 35.207031 6.085938 C 33.925781 5.753906 32.601562 5.414062 31.253906 5.320312 C 30.378906 5.257812 29.414062 5.503906 28.390625 6.046875 C 27.449219 6.546875 26.664062 7.191406 26.136719 7.691406 C 25.605469 7.191406 24.820312 6.546875 23.878906 6.046875 C 22.859375 5.503906 21.894531 5.257812 21.015625 5.320312 C 19.667969 5.410156 18.34375 5.753906 17.0625 6.085938 C 16.453125 6.242188 15.824219 6.402344 15.203125 6.539062 C 12.816406 7.046875 11.023438 6.949219 9.558594 6.230469 C 9.449219 6.175781 9.316406 6.21875 9.253906 6.324219 L 8.484375 7.707031 C 8.347656 7.652344 8.214844 7.597656 8.089844 7.535156 C 7.980469 7.476562 7.847656 7.519531 7.785156 7.628906 L 7.71875 7.746094 L 7.71875 7.734375 L 6.265625 7.589844 C 6.042969 7.566406 5.824219 7.679688 5.710938 7.875 L 0.0546875 17.644531 C -0.0351562 17.796875 -0.0507812 17.988281 0.015625 18.15625 C 0.0820312 18.324219 0.21875 18.453125 0.386719 18.503906 C 3.21875 19.371094 6.050781 19.75 8.808594 19.632812 C 11.207031 19.53125 13.339844 19.066406 15.222656 18.65625 C 18.347656 17.980469 20.816406 17.445312 22.933594 18.855469 C 23.40625 19.171875 23.84375 19.566406 24.214844 20.027344 C 24.324219 20.160156 24.488281 20.242188 24.664062 20.242188 L 27.382812 20.242188 C 27.550781 20.242188 27.703125 20.167969 27.816406 20.042969 C 28.328125 19.457031 28.910156 18.96875 29.558594 18.59375 C 31.855469 17.253906 34.308594 17.765625 37.417969 18.417969 C 39.796875 18.914062 42.503906 19.480469 45.828125 19.398438 Z M 44.199219 8.050781 L 44.671875 8.886719 L 44.671875 8.90625 L 44.679688 8.90625 L 49.214844 16.964844 C 47.320312 17.609375 45.019531 17.679688 42.003906 17.183594 C 41.117188 17.039062 40.085938 16.820312 39.003906 16.59375 C 36.992188 16.167969 34.917969 15.722656 33.246094 15.636719 C 31.878906 15.566406 30.429688 15.828125 29.164062 16.375 C 28.261719 16.765625 27.472656 17.296875 26.832031 17.929688 C 28.242188 15.082031 30.917969 14.558594 33.050781 14.671875 C 34.699219 14.757812 36.226562 15.078125 37.84375 15.417969 C 38.699219 15.59375 39.582031 15.78125 40.476562 15.925781 C 40.660156 15.957031 40.851562 15.988281 41.042969 16.019531 C 43.449219 16.417969 45.945312 16.832031 48.164062 16.003906 C 48.226562 15.980469 48.277344 15.929688 48.300781 15.863281 C 48.324219 15.800781 48.316406 15.722656 48.285156 15.664062 L 44.035156 8.121094 C 44.09375 8.097656 44.148438 8.074219 44.199219 8.050781 Z M 31.230469 5.789062 C 32.539062 5.878906 33.839844 6.214844 35.101562 6.539062 C 35.714844 6.695312 36.351562 6.863281 36.980469 6.996094 C 39.367188 7.503906 41.203125 7.425781 42.726562 6.742188 L 47.75 15.652344 C 45.703125 16.316406 43.378906 15.929688 41.121094 15.554688 C 40.929688 15.523438 40.738281 15.492188 40.554688 15.460938 C 39.667969 15.316406 38.792969 15.132812 37.941406 14.953125 C 36.378906 14.628906 34.765625 14.289062 33.078125 14.195312 C 31.484375 14.113281 30.09375 14.390625 28.949219 15.019531 C 27.800781 15.644531 26.921875 16.617188 26.328125 17.910156 L 26.378906 8.113281 C 27.066406 7.449219 29.152344 5.644531 31.230469 5.789062 Z M 9.5625 6.742188 C 11.082031 7.425781 12.917969 7.503906 15.308594 6.996094 C 15.941406 6.863281 16.574219 6.695312 17.1875 6.539062 C 18.445312 6.214844 19.75 5.875 21.058594 5.789062 C 23.136719 5.644531 25.21875 7.445312 25.914062 8.113281 L 25.863281 17.828125 C 25.285156 16.457031 24.421875 15.46875 23.292969 14.878906 C 22.191406 14.308594 20.964844 14.179688 19.960938 14.179688 C 19.695312 14.179688 19.441406 14.1875 19.210938 14.199219 C 17.527344 14.289062 15.910156 14.628906 14.347656 14.957031 C 13.5 15.136719 12.621094 15.320312 11.742188 15.464844 C 11.550781 15.496094 11.363281 15.527344 11.171875 15.558594 C 8.921875 15.933594 6.589844 16.320312 4.546875 15.65625 Z M 8.085938 8.050781 C 8.140625 8.074219 8.199219 8.097656 8.25 8.121094 L 4 15.667969 C 3.964844 15.726562 3.960938 15.800781 3.984375 15.867188 C 4.007812 15.933594 4.058594 15.980469 4.121094 16.007812 C 6.339844 16.839844 8.835938 16.425781 11.242188 16.023438 C 11.433594 15.992188 11.625 15.960938 11.808594 15.929688 C 12.703125 15.785156 13.585938 15.597656 14.441406 15.421875 C 16.058594 15.082031 17.582031 14.757812 19.234375 14.675781 C 21.46875 14.554688 24.105469 14.871094 25.441406 18.027344 C 24.789062 17.347656 23.988281 16.785156 23.0625 16.378906 C 21.828125 15.832031 20.398438 15.570312 19.035156 15.640625 C 17.359375 15.726562 15.285156 16.171875 13.277344 16.597656 C 12.191406 16.824219 11.164062 17.046875 10.277344 17.1875 C 7.261719 17.679688 4.957031 17.613281 3.066406 16.96875 L 7.601562 8.910156 L 7.605469 8.910156 L 7.605469 8.898438 Z M 24.925781 19.066406 C 24.519531 18.605469 24.0625 18.203125 23.566406 17.871094 C 21.046875 16.195312 18.238281 16.800781 14.980469 17.507812 C 13.144531 17.90625 11.066406 18.359375 8.761719 18.457031 C 6.367188 18.558594 3.90625 18.265625 1.433594 17.582031 L 6.527344 8.792969 L 7.101562 8.851562 L 2.527344 16.972656 C 2.492188 17.03125 2.488281 17.101562 2.511719 17.167969 C 2.535156 17.234375 2.585938 17.285156 2.648438 17.3125 C 4.667969 18.070312 7.117188 18.175781 10.355469 17.648438 C 11.253906 17.5 12.289062 17.28125 13.378906 17.050781 C 15.371094 16.628906 17.429688 16.191406 19.066406 16.109375 C 21.140625 16 24.0625 16.71875 25.703125 19.066406 Z M 28.976562 17.574219 C 28.296875 17.976562 27.671875 18.476562 27.125 19.066406 L 26.480469 19.066406 C 28.03125 16.867188 30.945312 15.988281 33.226562 16.109375 C 34.863281 16.195312 36.925781 16.628906 38.914062 17.050781 C 40.003906 17.285156 41.035156 17.5 41.941406 17.648438 C 45.175781 18.175781 47.625 18.066406 49.644531 17.3125 C 49.707031 17.289062 49.757812 17.238281 49.78125 17.167969 C 49.804688 17.105469 49.796875 17.03125 49.765625 16.972656 L 45.195312 8.855469 L 45.882812 8.792969 L 50.960938 17.554688 C 49.230469 17.957031 47.503906 18.183594 45.808594 18.222656 C 42.617188 18.300781 39.976562 17.75 37.652344 17.265625 C 34.425781 16.59375 31.648438 16.007812 28.976562 17.574219 Z M 28.976562 17.574219 " fill-opacity="1" fill-rule="nonzero"/><path fill="#4db6ac" d="M 45.828125 19.398438 C 47.851562 19.347656 49.925781 19.050781 51.992188 18.511719 C 52.164062 18.464844 52.308594 18.335938 52.378906 18.167969 C 52.449219 18 52.433594 17.804688 52.34375 17.648438 L 46.6875 7.878906 C 46.574219 7.683594 46.355469 7.574219 46.136719 7.59375 L 44.566406 7.738281 L 44.566406 7.757812 L 44.496094 7.632812 C 44.433594 7.523438 44.304688 7.480469 44.191406 7.539062 C 44.066406 7.601562 43.933594 7.660156 43.796875 7.710938 L 43.015625 6.324219 C 42.953125 6.21875 42.824219 6.175781 42.714844 6.230469 C 41.25 6.949219 39.453125 7.046875 37.066406 6.539062 C 36.445312 6.402344 35.816406 6.242188 35.207031 6.085938 C 33.925781 5.753906 32.601562 5.414062 31.253906 5.320312 C 30.378906 5.257812 29.414062 5.503906 28.390625 6.046875 C 27.449219 6.546875 26.664062 7.191406 26.136719 7.691406 C 25.605469 7.191406 24.820312 6.546875 23.878906 6.046875 C 22.859375 5.503906 21.894531 5.257812 21.015625 5.320312 C 19.667969 5.410156 18.34375 5.753906 17.0625 6.085938 C 16.453125 6.242188 15.824219 6.402344 15.203125 6.539062 C 12.816406 7.046875 11.023438 6.949219 9.558594 6.230469 C 9.449219 6.175781 9.316406 6.21875 9.253906 6.324219 L 8.484375 7.707031 C 8.347656 7.652344 8.214844 7.597656 8.089844 7.535156 C 7.980469 7.476562 7.847656 7.519531 7.785156 7.628906 L 7.71875 7.746094 L 7.71875 7.734375 L 6.265625 7.589844 C 6.042969 7.566406 5.824219 7.679688 5.710938 7.875 L 0.0546875 17.644531 C -0.0351562 17.796875 -0.0507812 17.988281 0.015625 18.15625 C 0.0820312 18.324219 0.21875 18.453125 0.386719 18.503906 C 3.21875 19.371094 6.050781 19.75 8.808594 19.632812 C 11.207031 19.53125 13.339844 19.066406 15.222656 18.65625 C 18.347656 17.980469 20.816406 17.445312 22.933594 18.855469 C 23.40625 19.171875 23.84375 19.566406 24.214844 20.027344 C 24.324219 20.160156 24.488281 20.242188 24.664062 20.242188 L 27.382812 20.242188 C 27.550781 20.242188 27.703125 20.167969 27.816406 20.042969 C 28.328125 19.457031 28.910156 18.96875 29.558594 18.59375 C 31.855469 17.253906 34.308594 17.765625 37.417969 18.417969 C 39.796875 18.914062 42.503906 19.480469 45.828125 19.398438 Z M 44.199219 8.050781 L 44.671875 8.886719 L 44.671875 8.90625 L 44.679688 8.90625 L 49.214844 16.964844 C 47.320312 17.609375 45.019531 17.679688 42.003906 17.183594 C 41.117188 17.039062 40.085938 16.820312 39.003906 16.59375 C 36.992188 16.167969 34.917969 15.722656 33.246094 15.636719 C 31.878906 15.566406 30.429688 15.828125 29.164062 16.375 C 28.261719 16.765625 27.472656 17.296875 26.832031 17.929688 C 28.242188 15.082031 30.917969 14.558594 33.050781 14.671875 C 34.699219 14.757812 36.226562 15.078125 37.84375 15.417969 C 38.699219 15.59375 39.582031 15.78125 40.476562 15.925781 C 40.660156 15.957031 40.851562 15.988281 41.042969 16.019531 C 43.449219 16.417969 45.945312 16.832031 48.164062 16.003906 C 48.226562 15.980469 48.277344 15.929688 48.300781 15.863281 C 48.324219 15.800781 48.316406 15.722656 48.285156 15.664062 L 44.035156 8.121094 C 44.09375 8.097656 44.148438 8.074219 44.199219 8.050781 Z M 31.230469 5.789062 C 32.539062 5.878906 33.839844 6.214844 35.101562 6.539062 C 35.714844 6.695312 36.351562 6.863281 36.980469 6.996094 C 39.367188 7.503906 41.203125 7.425781 42.726562 6.742188 L 47.75 15.652344 C 45.703125 16.316406 43.378906 15.929688 41.121094 15.554688 C 40.929688 15.523438 40.738281 15.492188 40.554688 15.460938 C 39.667969 15.316406 38.792969 15.132812 37.941406 14.953125 C 36.378906 14.628906 34.765625 14.289062 33.078125 14.195312 C 31.484375 14.113281 30.09375 14.390625 28.949219 15.019531 C 27.800781 15.644531 26.921875 16.617188 26.328125 17.910156 L 26.378906 8.113281 C 27.066406 7.449219 29.152344 5.644531 31.230469 5.789062 Z M 9.5625 6.742188 C 11.082031 7.425781 12.917969 7.503906 15.308594 6.996094 C 15.941406 6.863281 16.574219 6.695312 17.1875 6.539062 C 18.445312 6.214844 19.75 5.875 21.058594 5.789062 C 23.136719 5.644531 25.21875 7.445312 25.914062 8.113281 L 25.863281 17.828125 C 25.285156 16.457031 24.421875 15.46875 23.292969 14.878906 C 22.191406 14.308594 20.964844 14.179688 19.960938 14.179688 C 19.695312 14.179688 19.441406 14.1875 19.210938 14.199219 C 17.527344 14.289062 15.910156 14.628906 14.347656 14.957031 C 13.5 15.136719 12.621094 15.320312 11.742188 15.464844 C 11.550781 15.496094 11.363281 15.527344 11.171875 15.558594 C 8.921875 15.933594 6.589844 16.320312 4.546875 15.65625 Z M 8.085938 8.050781 C 8.140625 8.074219 8.199219 8.097656 8.25 8.121094 L 4 15.667969 C 3.964844 15.726562 3.960938 15.800781 3.984375 15.867188 C 4.007812 15.933594 4.058594 15.980469 4.121094 16.007812 C 6.339844 16.839844 8.835938 16.425781 11.242188 16.023438 C 11.433594 15.992188 11.625 15.960938 11.808594 15.929688 C 12.703125 15.785156 13.585938 15.597656 14.441406 15.421875 C 16.058594 15.082031 17.582031 14.757812 19.234375 14.675781 C 21.46875 14.554688 24.105469 14.871094 25.441406 18.027344 C 24.789062 17.347656 23.988281 16.785156 23.0625 16.378906 C 21.828125 15.832031 20.398438 15.570312 19.035156 15.640625 C 17.359375 15.726562 15.285156 16.171875 13.277344 16.597656 C 12.191406 16.824219 11.164062 17.046875 10.277344 17.1875 C 7.261719 17.679688 4.957031 17.613281 3.066406 16.96875 L 7.601562 8.910156 L 7.605469 8.910156 L 7.605469 8.898438 Z M 24.925781 19.066406 C 24.519531 18.605469 24.0625 18.203125 23.566406 17.871094 C 21.046875 16.195312 18.238281 16.800781 14.980469 17.507812 C 13.144531 17.90625 11.066406 18.359375 8.761719 18.457031 C 6.367188 18.558594 3.90625 18.265625 1.433594 17.582031 L 6.527344 8.792969 L 7.101562 8.851562 L 2.527344 16.972656 C 2.492188 17.03125 2.488281 17.101562 2.511719 17.167969 C 2.535156 17.234375 2.585938 17.285156 2.648438 17.3125 C 4.667969 18.070312 7.117188 18.175781 10.355469 17.648438 C 11.253906 17.5 12.289062 17.28125 13.378906 17.050781 C 15.371094 16.628906 17.429688 16.191406 19.066406 16.109375 C 21.140625 16 24.0625 16.71875 25.703125 19.066406 Z M 28.976562 17.574219 C 28.296875 17.976562 27.671875 18.476562 27.125 19.066406 L 26.480469 19.066406 C 28.03125 16.867188 30.945312 15.988281 33.226562 16.109375 C 34.863281 16.195312 36.925781 16.628906 38.914062 17.050781 C 40.003906 17.285156 41.035156 17.5 41.941406 17.648438 C 45.175781 18.175781 47.625 18.066406 49.644531 17.3125 C 49.707031 17.289062 49.757812 17.238281 49.78125 17.167969 C 49.804688 17.105469 49.796875 17.03125 49.765625 16.972656 L 45.195312 8.855469 L 45.882812 8.792969 L 50.960938 17.554688 C 49.230469 17.957031 47.503906 18.183594 45.808594 18.222656 C 42.617188 18.300781 39.976562 17.75 37.652344 17.265625 C 34.425781 16.59375 31.648438 16.007812 28.976562 17.574219 Z M 28.976562 17.574219 " fill-opacity="1" fill-rule="nonzero"/></g><g fill="#f5f5dc" fill-opacity="1"><g transform="translate(0.313292, 37.365743)"><g><path d="M 11.15625 -15.609375 L 11.15625 -4.984375 C 11.15625 -3.335938 10.691406 -2.066406 9.765625 -1.171875 C 8.835938 -0.285156 7.59375 0.15625 6.03125 0.15625 C 4.382812 0.15625 3.0625 -0.304688 2.0625 -1.234375 C 1.070312 -2.171875 0.578125 -3.5 0.578125 -5.21875 L 4.359375 -5.21875 C 4.359375 -4.570312 4.488281 -4.082031 4.75 -3.75 C 5.019531 -3.414062 5.410156 -3.25 5.921875 -3.25 C 6.378906 -3.25 6.734375 -3.394531 6.984375 -3.6875 C 7.234375 -3.988281 7.359375 -4.421875 7.359375 -4.984375 L 7.359375 -15.609375 Z M 11.15625 -15.609375 "/></g></g></g><g fill="#f5f5dc" fill-opacity="1"><g transform="translate(13.162523, 37.365743)"><g><path d="M 13.078125 -6.40625 C 13.078125 -6.050781 13.050781 -5.679688 13 -5.296875 L 4.40625 -5.296875 C 4.457031 -4.523438 4.703125 -3.929688 5.140625 -3.515625 C 5.578125 -3.109375 6.117188 -2.90625 6.765625 -2.90625 C 7.710938 -2.90625 8.367188 -3.304688 8.734375 -4.109375 L 12.78125 -4.109375 C 12.570312 -3.296875 12.195312 -2.5625 11.65625 -1.90625 C 11.113281 -1.257812 10.4375 -0.75 9.625 -0.375 C 8.8125 -0.0078125 7.898438 0.171875 6.890625 0.171875 C 5.671875 0.171875 4.585938 -0.0820312 3.640625 -0.59375 C 2.691406 -1.113281 1.953125 -1.851562 1.421875 -2.8125 C 0.890625 -3.78125 0.625 -4.910156 0.625 -6.203125 C 0.625 -7.492188 0.882812 -8.617188 1.40625 -9.578125 C 1.9375 -10.546875 2.675781 -11.285156 3.625 -11.796875 C 4.570312 -12.316406 5.660156 -12.578125 6.890625 -12.578125 C 8.085938 -12.578125 9.15625 -12.328125 10.09375 -11.828125 C 11.03125 -11.328125 11.757812 -10.609375 12.28125 -9.671875 C 12.8125 -8.734375 13.078125 -7.644531 13.078125 -6.40625 Z M 9.1875 -7.40625 C 9.1875 -8.050781 8.960938 -8.566406 8.515625 -8.953125 C 8.066406 -9.335938 7.507812 -9.53125 6.84375 -9.53125 C 6.207031 -9.53125 5.671875 -9.34375 5.234375 -8.96875 C 4.796875 -8.601562 4.523438 -8.082031 4.421875 -7.40625 Z M 9.1875 -7.40625 "/></g></g></g><g fill="#f5f5dc" fill-opacity="1"><g transform="translate(26.856511, 37.365743)"><g><path d="M 7.609375 -9.25 L 5.5625 -9.25 L 5.5625 0 L 1.75 0 L 1.75 -9.25 L 0.375 -9.25 L 0.375 -12.40625 L 1.75 -12.40625 L 1.75 -12.765625 C 1.75 -14.285156 2.1875 -15.441406 3.0625 -16.234375 C 3.9375 -17.035156 5.222656 -17.4375 6.921875 -17.4375 C 7.203125 -17.4375 7.40625 -17.425781 7.53125 -17.40625 L 7.53125 -14.1875 C 6.8125 -14.226562 6.300781 -14.125 6 -13.875 C 5.707031 -13.625 5.5625 -13.171875 5.5625 -12.515625 L 5.5625 -12.40625 L 7.609375 -12.40625 Z M 7.609375 -9.25 "/></g></g></g><g fill="#f5f5dc" fill-opacity="1"><g transform="translate(34.859489, 37.365743)"><g><path d="M 4.03125 -17.78125 L 3.734375 -12.875 L 1.171875 -12.875 L 0.890625 -17.78125 Z M 4.03125 -17.78125 "/></g></g></g><g fill="#f5f5dc" fill-opacity="1"><g transform="translate(39.772426, 37.365743)"><g><path d="M 6.421875 0.171875 C 5.335938 0.171875 4.375 -0.0078125 3.53125 -0.375 C 2.6875 -0.75 2.019531 -1.257812 1.53125 -1.90625 C 1.039062 -2.550781 0.769531 -3.269531 0.71875 -4.0625 L 4.46875 -4.0625 C 4.507812 -3.632812 4.707031 -3.285156 5.0625 -3.015625 C 5.425781 -2.753906 5.863281 -2.625 6.375 -2.625 C 6.851562 -2.625 7.222656 -2.710938 7.484375 -2.890625 C 7.742188 -3.078125 7.875 -3.320312 7.875 -3.625 C 7.875 -3.976562 7.6875 -4.238281 7.3125 -4.40625 C 6.945312 -4.582031 6.347656 -4.773438 5.515625 -4.984375 C 4.628906 -5.191406 3.890625 -5.410156 3.296875 -5.640625 C 2.703125 -5.867188 2.1875 -6.226562 1.75 -6.71875 C 1.320312 -7.21875 1.109375 -7.890625 1.109375 -8.734375 C 1.109375 -9.453125 1.304688 -10.101562 1.703125 -10.6875 C 2.097656 -11.269531 2.675781 -11.726562 3.4375 -12.0625 C 4.195312 -12.40625 5.101562 -12.578125 6.15625 -12.578125 C 7.71875 -12.578125 8.945312 -12.191406 9.84375 -11.421875 C 10.738281 -10.648438 11.253906 -9.628906 11.390625 -8.359375 L 7.875 -8.359375 C 7.8125 -8.785156 7.617188 -9.125 7.296875 -9.375 C 6.984375 -9.632812 6.566406 -9.765625 6.046875 -9.765625 C 5.597656 -9.765625 5.253906 -9.675781 5.015625 -9.5 C 4.785156 -9.332031 4.671875 -9.101562 4.671875 -8.8125 C 4.671875 -8.445312 4.859375 -8.175781 5.234375 -8 C 5.609375 -7.820312 6.195312 -7.644531 7 -7.46875 C 7.914062 -7.226562 8.660156 -6.992188 9.234375 -6.765625 C 9.816406 -6.535156 10.328125 -6.164062 10.765625 -5.65625 C 11.203125 -5.144531 11.429688 -4.460938 11.453125 -3.609375 C 11.453125 -2.878906 11.25 -2.226562 10.84375 -1.65625 C 10.4375 -1.082031 9.847656 -0.632812 9.078125 -0.3125 C 8.316406 0.0078125 7.429688 0.171875 6.421875 0.171875 Z M 6.421875 0.171875 "/></g></g></g><g fill="#f5f5dc" fill-opacity="1"><g transform="translate(0.867559, 45.402452)"><g><path d="M 2.734375 0.046875 C 2.273438 0.046875 1.851562 -0.0546875 1.46875 -0.265625 C 1.09375 -0.484375 0.789062 -0.78125 0.5625 -1.15625 C 0.34375 -1.539062 0.234375 -1.96875 0.234375 -2.4375 C 0.234375 -2.914062 0.34375 -3.34375 0.5625 -3.71875 C 0.789062 -4.101562 1.09375 -4.398438 1.46875 -4.609375 C 1.851562 -4.816406 2.273438 -4.921875 2.734375 -4.921875 C 3.179688 -4.921875 3.59375 -4.816406 3.96875 -4.609375 C 4.351562 -4.398438 4.65625 -4.101562 4.875 -3.71875 C 5.101562 -3.34375 5.21875 -2.914062 5.21875 -2.4375 C 5.21875 -1.96875 5.101562 -1.539062 4.875 -1.15625 C 4.65625 -0.78125 4.351562 -0.484375 3.96875 -0.265625 C 3.59375 -0.0546875 3.179688 0.046875 2.734375 0.046875 Z M 2.734375 -1.03125 C 3.117188 -1.03125 3.425781 -1.160156 3.65625 -1.421875 C 3.882812 -1.679688 4 -2.019531 4 -2.4375 C 4 -2.875 3.882812 -3.21875 3.65625 -3.46875 C 3.425781 -3.726562 3.117188 -3.859375 2.734375 -3.859375 C 2.335938 -3.859375 2.019531 -3.726562 1.78125 -3.46875 C 1.550781 -3.21875 1.4375 -2.875 1.4375 -2.4375 C 1.4375 -2.007812 1.550781 -1.664062 1.78125 -1.40625 C 2.019531 -1.15625 2.335938 -1.03125 2.734375 -1.03125 Z M 2.734375 -1.03125 "/></g></g></g><g fill="#f5f5dc" fill-opacity="1"><g transform="translate(6.313241, 45.402452)"><g><path d="M 2.78125 -3.90625 C 3.226562 -3.90625 3.585938 -3.757812 3.859375 -3.46875 C 4.128906 -3.175781 4.265625 -2.769531 4.265625 -2.25 L 4.265625 0 L 3.09375 0 L 3.09375 -2.09375 C 3.09375 -2.351562 3.023438 -2.554688 2.890625 -2.703125 C 2.753906 -2.847656 2.578125 -2.921875 2.359375 -2.921875 C 2.128906 -2.921875 1.945312 -2.847656 1.8125 -2.703125 C 1.675781 -2.554688 1.609375 -2.351562 1.609375 -2.09375 L 1.609375 0 L 0.421875 0 L 0.421875 -3.859375 L 1.609375 -3.859375 L 1.609375 -3.34375 C 1.734375 -3.519531 1.894531 -3.65625 2.09375 -3.75 C 2.300781 -3.851562 2.53125 -3.90625 2.78125 -3.90625 Z M 2.78125 -3.90625 "/></g></g></g><g fill="#f5f5dc" fill-opacity="1"><g transform="translate(10.982948, 45.402452)"><g><path d="M 1.609375 -5.125 L 1.609375 0 L 0.421875 0 L 0.421875 -5.125 Z M 1.609375 -5.125 "/></g></g></g><g fill="#f5f5dc" fill-opacity="1"><g transform="translate(13.02681, 45.402452)"><g><path d="M 1.03125 -4.265625 C 0.820312 -4.265625 0.648438 -4.320312 0.515625 -4.4375 C 0.378906 -4.5625 0.3125 -4.71875 0.3125 -4.90625 C 0.3125 -5.082031 0.378906 -5.234375 0.515625 -5.359375 C 0.648438 -5.484375 0.820312 -5.546875 1.03125 -5.546875 C 1.226562 -5.546875 1.390625 -5.484375 1.515625 -5.359375 C 1.648438 -5.234375 1.71875 -5.082031 1.71875 -4.90625 C 1.71875 -4.71875 1.648438 -4.5625 1.515625 -4.4375 C 1.390625 -4.320312 1.226562 -4.265625 1.03125 -4.265625 Z M 1.609375 -3.859375 L 1.609375 0 L 0.421875 0 L 0.421875 -3.859375 Z M 1.609375 -3.859375 "/></g></g></g><g fill="#f5f5dc" fill-opacity="1"><g transform="translate(15.070672, 45.402452)"><g><path d="M 2.78125 -3.90625 C 3.226562 -3.90625 3.585938 -3.757812 3.859375 -3.46875 C 4.128906 -3.175781 4.265625 -2.769531 4.265625 -2.25 L 4.265625 0 L 3.09375 0 L 3.09375 -2.09375 C 3.09375 -2.351562 3.023438 -2.554688 2.890625 -2.703125 C 2.753906 -2.847656 2.578125 -2.921875 2.359375 -2.921875 C 2.128906 -2.921875 1.945312 -2.847656 1.8125 -2.703125 C 1.675781 -2.554688 1.609375 -2.351562 1.609375 -2.09375 L 1.609375 0 L 0.421875 0 L 0.421875 -3.859375 L 1.609375 -3.859375 L 1.609375 -3.34375 C 1.734375 -3.519531 1.894531 -3.65625 2.09375 -3.75 C 2.300781 -3.851562 2.53125 -3.90625 2.78125 -3.90625 Z M 2.78125 -3.90625 "/></g></g></g><g fill="#f5f5dc" fill-opacity="1"><g transform="translate(19.740379, 45.402452)"><g><path d="M 4.0625 -2 C 4.0625 -1.882812 4.054688 -1.765625 4.046875 -1.640625 L 1.375 -1.640625 C 1.382812 -1.398438 1.457031 -1.21875 1.59375 -1.09375 C 1.738281 -0.96875 1.910156 -0.90625 2.109375 -0.90625 C 2.398438 -0.90625 2.601562 -1.03125 2.71875 -1.28125 L 3.984375 -1.28125 C 3.921875 -1.03125 3.800781 -0.800781 3.625 -0.59375 C 3.457031 -0.394531 3.242188 -0.234375 2.984375 -0.109375 C 2.734375 0.00390625 2.453125 0.0625 2.140625 0.0625 C 1.765625 0.0625 1.425781 -0.015625 1.125 -0.171875 C 0.832031 -0.335938 0.601562 -0.570312 0.4375 -0.875 C 0.269531 -1.175781 0.1875 -1.53125 0.1875 -1.9375 C 0.1875 -2.332031 0.269531 -2.679688 0.4375 -2.984375 C 0.601562 -3.285156 0.832031 -3.515625 1.125 -3.671875 C 1.425781 -3.835938 1.765625 -3.921875 2.140625 -3.921875 C 2.515625 -3.921875 2.847656 -3.84375 3.140625 -3.6875 C 3.429688 -3.53125 3.65625 -3.304688 3.8125 -3.015625 C 3.976562 -2.722656 4.0625 -2.382812 4.0625 -2 Z M 2.859375 -2.3125 C 2.859375 -2.507812 2.785156 -2.664062 2.640625 -2.78125 C 2.503906 -2.90625 2.332031 -2.96875 2.125 -2.96875 C 1.925781 -2.96875 1.757812 -2.910156 1.625 -2.796875 C 1.488281 -2.679688 1.40625 -2.519531 1.375 -2.3125 Z M 2.859375 -2.3125 "/></g></g></g><g fill="#f5f5dc" fill-opacity="1"><g transform="translate(24.008245, 45.402452)"><g/></g></g><g fill="#f5f5dc" fill-opacity="1"><g transform="translate(25.477057, 45.402452)"><g><path d="M 1.609375 -0.90625 L 3.15625 -0.90625 L 3.15625 0 L 0.421875 0 L 0.421875 -4.859375 L 1.609375 -4.859375 Z M 1.609375 -0.90625 "/></g></g></g><g fill="#f5f5dc" fill-opacity="1"><g transform="translate(28.781881, 45.402452)"><g><path d="M 1.03125 -4.265625 C 0.820312 -4.265625 0.648438 -4.320312 0.515625 -4.4375 C 0.378906 -4.5625 0.3125 -4.71875 0.3125 -4.90625 C 0.3125 -5.082031 0.378906 -5.234375 0.515625 -5.359375 C 0.648438 -5.484375 0.820312 -5.546875 1.03125 -5.546875 C 1.226562 -5.546875 1.390625 -5.484375 1.515625 -5.359375 C 1.648438 -5.234375 1.71875 -5.082031 1.71875 -4.90625 C 1.71875 -4.71875 1.648438 -4.5625 1.515625 -4.4375 C 1.390625 -4.320312 1.226562 -4.265625 1.03125 -4.265625 Z M 1.609375 -3.859375 L 1.609375 0 L 0.421875 0 L 0.421875 -3.859375 Z M 1.609375 -3.859375 "/></g></g></g><g fill="#f5f5dc" fill-opacity="1"><g transform="translate(30.825743, 45.402452)"><g><path d="M 1.609375 -3.3125 C 1.722656 -3.488281 1.882812 -3.632812 2.09375 -3.75 C 2.300781 -3.863281 2.535156 -3.921875 2.796875 -3.921875 C 3.117188 -3.921875 3.410156 -3.835938 3.671875 -3.671875 C 3.929688 -3.515625 4.132812 -3.285156 4.28125 -2.984375 C 4.425781 -2.679688 4.5 -2.332031 4.5 -1.9375 C 4.5 -1.539062 4.425781 -1.191406 4.28125 -0.890625 C 4.132812 -0.585938 3.929688 -0.351562 3.671875 -0.1875 C 3.410156 -0.0195312 3.117188 0.0625 2.796875 0.0625 C 2.523438 0.0625 2.285156 0.0078125 2.078125 -0.09375 C 1.878906 -0.207031 1.722656 -0.359375 1.609375 -0.546875 L 1.609375 0 L 0.421875 0 L 0.421875 -5.125 L 1.609375 -5.125 Z M 3.296875 -1.9375 C 3.296875 -2.226562 3.210938 -2.457031 3.046875 -2.625 C 2.890625 -2.800781 2.691406 -2.890625 2.453125 -2.890625 C 2.210938 -2.890625 2.007812 -2.800781 1.84375 -2.625 C 1.6875 -2.457031 1.609375 -2.226562 1.609375 -1.9375 C 1.609375 -1.632812 1.6875 -1.394531 1.84375 -1.21875 C 2.007812 -1.050781 2.210938 -0.96875 2.453125 -0.96875 C 2.679688 -0.96875 2.878906 -1.054688 3.046875 -1.234375 C 3.210938 -1.410156 3.296875 -1.644531 3.296875 -1.9375 Z M 3.296875 -1.9375 "/></g></g></g><g fill="#f5f5dc" fill-opacity="1"><g transform="translate(35.530091, 45.402452)"><g><path d="M 1.609375 -3.21875 C 1.753906 -3.425781 1.925781 -3.59375 2.125 -3.71875 C 2.332031 -3.84375 2.566406 -3.90625 2.828125 -3.90625 L 2.828125 -2.65625 L 2.5 -2.65625 C 2.207031 -2.65625 1.984375 -2.585938 1.828125 -2.453125 C 1.679688 -2.328125 1.609375 -2.109375 1.609375 -1.796875 L 1.609375 0 L 0.421875 0 L 0.421875 -3.859375 L 1.609375 -3.859375 Z M 1.609375 -3.21875 "/></g></g></g><g fill="#f5f5dc" fill-opacity="1"><g transform="translate(38.495421, 45.402452)"><g><path d="M 0.1875 -1.9375 C 0.1875 -2.332031 0.257812 -2.679688 0.40625 -2.984375 C 0.5625 -3.285156 0.769531 -3.515625 1.03125 -3.671875 C 1.289062 -3.835938 1.578125 -3.921875 1.890625 -3.921875 C 2.171875 -3.921875 2.410156 -3.863281 2.609375 -3.75 C 2.816406 -3.632812 2.976562 -3.488281 3.09375 -3.3125 L 3.09375 -3.859375 L 4.265625 -3.859375 L 4.265625 0 L 3.09375 0 L 3.09375 -0.546875 C 2.976562 -0.367188 2.816406 -0.222656 2.609375 -0.109375 C 2.398438 0.00390625 2.160156 0.0625 1.890625 0.0625 C 1.578125 0.0625 1.289062 -0.0195312 1.03125 -0.1875 C 0.769531 -0.351562 0.5625 -0.585938 0.40625 -0.890625 C 0.257812 -1.191406 0.1875 -1.539062 0.1875 -1.9375 Z M 3.09375 -1.9375 C 3.09375 -2.226562 3.007812 -2.457031 2.84375 -2.625 C 2.675781 -2.800781 2.476562 -2.890625 2.25 -2.890625 C 2.007812 -2.890625 1.804688 -2.800781 1.640625 -2.625 C 1.472656 -2.457031 1.390625 -2.226562 1.390625 -1.9375 C 1.390625 -1.644531 1.472656 -1.410156 1.640625 -1.234375 C 1.804688 -1.054688 2.007812 -0.96875 2.25 -0.96875 C 2.476562 -0.96875 2.675781 -1.050781 2.84375 -1.21875 C 3.007812 -1.394531 3.09375 -1.632812 3.09375 -1.9375 Z M 3.09375 -1.9375 "/></g></g></g><g fill="#f5f5dc" fill-opacity="1"><g transform="translate(43.199768, 45.402452)"><g><path d="M 1.609375 -3.21875 C 1.753906 -3.425781 1.925781 -3.59375 2.125 -3.71875 C 2.332031 -3.84375 2.566406 -3.90625 2.828125 -3.90625 L 2.828125 -2.65625 L 2.5 -2.65625 C 2.207031 -2.65625 1.984375 -2.585938 1.828125 -2.453125 C 1.679688 -2.328125 1.609375 -2.109375 1.609375 -1.796875 L 1.609375 0 L 0.421875 0 L 0.421875 -3.859375 L 1.609375 -3.859375 Z M 1.609375 -3.21875 "/></g></g></g><g fill="#f5f5dc" fill-opacity="1"><g transform="translate(46.165099, 45.402452)"><g><path d="M 4.375 -3.859375 L 1.953125 1.828125 L 0.671875 1.828125 L 1.5625 -0.125 L 0 -3.859375 L 1.3125 -3.859375 L 2.203125 -1.453125 L 3.09375 -3.859375 Z M 4.375 -3.859375 "/></g></g></g></svg>